<svg xmlns="http://www.w3.org/2000/svg" width="195" height="110" viewBox="0 0 195 110">
  <g fill="none" fill-rule="evenodd">
    <path stroke="#8049A9" stroke-linecap="square" d="M.5 109l136.487.456"/>
    <g fill-rule="nonzero" opacity=".425">
      <path fill="#8049A9" d="M126.353 20.151c-2.828-1.44-5.323-1.902-7.692-1.925-4.052-.043-7.63-2.685-8.955-6.514-.774-2.238-2.038-4.499-4.372-6.833-4.838-4.838-12.683-4.838-17.521 0-2.246 2.245-3.455 4.472-4.21 6.721-1.294 3.84-4.91 6.43-8.963 6.506-2.369.046-4.907.547-7.85 2.045-6.097 3.109-8.52 10.57-5.415 16.667 1.44 2.828 3.19 4.669 5.092 6.083 3.255 2.415 4.595 6.656 3.416 10.534-.69 2.27-.997 4.838-.477 8.1 1.07 6.76 7.418 11.372 14.178 10.3 3.135-.496 5.423-1.586 7.356-2.961 3.305-2.346 7.75-2.315 11.074.004 1.941 1.355 4.29 2.442 7.553 2.958 6.76 1.07 13.107-3.54 14.178-10.3.497-3.136.166-5.65-.543-7.912-1.213-3.867.192-8.089 3.428-10.53 1.891-1.43 3.647-3.329 5.15-6.272 3.096-6.105.67-13.566-5.427-16.67z"/>
      <path fill="#AD6EDC" d="M93.436 20.352c8.532 2.176 16.901-2.13 25.225-2.13-4.052-.043-7.63-2.685-8.955-6.514-.774-2.238-2.038-4.499-4.372-6.833-4.838-4.838-12.683-4.838-17.521 0-4.722 4.984-1.807 13.582 5.623 15.477zM77.825 36.245c4.703-7.442 3.197-16.733 5.77-24.649-1.294 3.84-4.91 6.43-8.963 6.506-2.368.046-4.907.547-7.85 2.046-6.096 3.108-8.52 10.57-5.415 16.667 3.286 6.028 12.364 5.912 16.458-.57zm10.296 19.76c-5.623-6.772-14.925-8.213-21.658-13.105 3.255 2.415 4.595 6.656 3.417 10.534-.69 2.27-.998 4.838-.478 8.1 1.07 6.76 7.418 11.372 14.178 10.3 6.744-1.263 9.436-9.933 4.541-15.83zm21.969-3.687c-8.18 3.255-12.42 11.656-19.153 16.548 3.304-2.346 7.75-2.315 11.073.004 1.941 1.356 4.29 2.442 7.553 2.958 6.76 1.07 13.107-3.54 14.178-10.3.882-6.802-6.528-12.045-13.65-9.21zm3.286-22.032c.567 8.786 7.25 15.419 9.818 23.334-1.213-3.867.193-8.089 3.428-10.53 1.891-1.43 3.648-3.329 5.15-6.272 3.104-6.097.682-13.558-5.416-16.667-6.2-2.946-13.477 2.481-12.98 10.135z"/>
    </g>
    <path stroke="#8049A9" stroke-dasharray="10" stroke-linecap="square" d="M143.328 109.456L193.5 109"/>
  </g>
</svg>